<?xml version="1.0" encoding="UTF-8" standalone="no"?>
<svg
   version="1.2"
   viewBox="0 0 416 416"
   id="svg87"
   sodipodi:docname="pulse1.svg"
   inkscape:version="1.1.2 (0a00cf5339, 2022-02-04)"
   xmlns:inkscape="http://www.inkscape.org/namespaces/inkscape"
   xmlns:sodipodi="http://sodipodi.sourceforge.net/DTD/sodipodi-0.dtd"
   xmlns="http://www.w3.org/2000/svg"
   xmlns:svg="http://www.w3.org/2000/svg">
  <defs
     id="defs91" />
  <sodipodi:namedview
     id="namedview89"
     pagecolor="#ffffff"
     bordercolor="#666666"
     borderopacity="1.0"
     inkscape:pageshadow="2"
     inkscape:pageopacity="0.0"
     inkscape:pagecheckerboard="0"
     showgrid="false"
     inkscape:zoom="4.5408654"
     inkscape:cx="208"
     inkscape:cy="208"
     inkscape:window-width="3768"
     inkscape:window-height="2119"
     inkscape:window-x="72"
     inkscape:window-y="0"
     inkscape:window-maximized="1"
     inkscape:current-layer="svg87" />
  <g
     stroke-width="2.00"
     fill="none"
     stroke-linecap="butt"
     id="g75">
    <path
       stroke="#ff8080"
       vector-effect="non-scaling-stroke"
       d="   M 218.18 213.43   Q 220.24 212.51 221.64 215.43   Q 223.43 219.15 224.76 222.24   Q 225.52 223.99 226.18 222.20   Q 227.79 217.88 230.52 214.20   A 1.21 1.21 13.5 0 1 231.29 213.73   Q 234.00 213.26 236.75 213.26   Q 252.00 213.25 267.96 213.25   A 1.49 1.48 15.2 0 0 269.24 212.52   Q 273.57 205.10 276.08 196.52   Q 279.02 186.43 278.08 176.32   Q 277.09 165.67 272.17 157.39   Q 266.35 147.61 255.99 142.86   Q 246.85 138.66 236.51 139.52   Q 215.72 141.23 205.57 162.59   Q 205.06 163.67 204.59 162.57   Q 198.62 148.80 186.43 142.91   Q 178.50 139.07 169.61 139.17   Q 160.55 139.29 152.44 143.69   Q 136.50 152.34 132.84 170.67   Q 131.39 177.90 132.09 185.24   Q 133.48 200.00 141.08 212.72   A 1.10 1.10 -15.5 0 0 142.02 213.25   L 175.09 213.25   A 0.71 0.70 -78.7 0 0 175.74 212.81   Q 177.50 208.45 179.64 204.15   Q 180.55 202.31 181.27 201.68   Q 183.09 200.08 184.80 202.90   Q 186.38 205.50 187.77 208.10   Q 188.24 208.99 188.50 208.01   Q 191.98 194.62 195.98 181.39   Q 196.39 180.04 197.03 179.47   Q 198.14 178.47 199.43 179.10   Q 200.51 179.63 200.94 181.30   Q 201.41 183.16 201.70 185.06   Q 205.84 212.11 209.60 237.72   Q 210.03 240.69 210.74 237.77   L 216.05 215.99   Q 216.49 214.18 218.18 213.43"
       id="path67" />
    <path
       stroke="#ff8080"
       vector-effect="non-scaling-stroke"
       d="   M 80.43 207.81   Q 79.36 204.85 77.25 202.00   Q 75.09 199.08 73.56 202.31   L 68.64 212.77   A 1.20 1.10 -75.1 0 1 67.57 213.45   Q 54.94 212.89 42.55 213.54   A 1.09 1.09 18.0 0 0 41.74 213.95   Q 39.47 216.81 41.90 218.10   Q 42.99 218.68 45.34 218.70   Q 57.30 218.79 69.30 218.75   Q 71.78 218.74 72.79 216.41   L 75.32 210.52   Q 75.57 209.94 75.89 210.49   Q 77.50 213.22 78.94 215.98   Q 79.74 217.51 80.56 218.12   Q 82.33 219.43 83.62 217.85   Q 84.27 217.05 84.88 214.86   Q 87.62 205.17 90.19 195.44   Q 90.65 193.67 90.94 195.56   L 99.67 253.65   Q 99.95 255.55 101.79 256.08   Q 103.81 256.66 104.45 254.37   Q 108.46 240.12 112.16 225.09   Q 112.54 223.56 113.30 225.00   L 116.34 230.74   Q 118.29 234.41 120.25 230.65   L 126.05 219.54   A 1.51 1.43 -75.5 0 1 127.32 218.74   L 143.69 218.69   A 0.35 0.32 -13.6 0 0 144.01 218.21   L 141.58 214.02   A 1.12 0.88 -8.7 0 0 140.76 213.56   Q 132.62 212.91 124.75 213.54   A 2.32 2.18 10.4 0 0 122.90 214.73   L 118.95 222.38   Q 118.38 223.48 117.85 222.39   Q 115.99 218.57 114.07 215.10   Q 113.46 214.00 112.67 213.65   Q 111.47 213.12 110.46 213.79   Q 109.61 214.35 109.14 216.08   Q 106.12 227.34 103.42 238.68   Q 103.29 239.25 103.04 239.21   A 0.67 0.34 85.7 0 1 102.70 238.64   L 94.06 181.26   Q 93.81 179.61 92.29 178.94   Q 90.93 178.34 89.91 179.36   Q 89.35 179.92 88.93 181.31   Q 84.97 194.46 81.50 207.76   Q 81.04 209.51 80.43 207.81"
       id="path69" />
    <path
       stroke="#ff8080"
       vector-effect="non-scaling-stroke"
       d="   M 295.37 208.06   Q 293.73 206.01 292.70 203.56   Q 291.56 200.85 289.52 201.36   Q 288.25 201.68 287.30 203.49   Q 284.92 208.06 283.08 212.58   A 1.11 1.08 10.3 0 1 282.07 213.26   L 269.33 213.32   A 0.92 0.87 13.8 0 0 268.54 213.77   L 266.04 218.24   A 0.31 0.30 14.4 0 0 266.31 218.69   Q 274.53 218.80 282.74 219.00   Q 286.55 219.09 287.72 215.58   Q 288.59 212.99 289.69 210.62   Q 290.11 209.73 290.55 210.61   Q 292.06 213.58 293.52 216.07   Q 296.18 220.64 298.20 217.40   Q 298.81 216.42 299.50 214.00   Q 302.11 204.78 304.50 195.48   Q 305.02 193.47 305.33 195.53   Q 309.53 224.16 314.06 253.25   Q 314.29 254.75 315.05 255.46   Q 316.37 256.69 317.80 255.75   Q 318.83 255.08 319.36 253.17   Q 323.24 239.04 326.49 224.79   Q 326.86 223.16 327.56 224.68   Q 328.56 226.87 329.62 229.03   Q 330.51 230.85 331.49 231.45   Q 333.48 232.66 334.99 230.02   Q 337.86 225.03 340.36 219.70   A 1.75 1.71 12.2 0 1 341.91 218.73   L 373.24 218.51   A 1.61 1.39 22.8 0 0 374.17 218.21   Q 376.02 216.76 374.92 214.49   A 1.18 1.10 -4.1 0 0 374.20 213.91   Q 372.11 213.31 368.00 213.25   Q 353.40 213.03 338.80 213.55   A 1.03 1.00 -71.7 0 0 338.01 213.96   Q 335.33 217.51 333.38 221.98   Q 332.49 224.01 331.74 221.92   Q 330.20 217.66 327.86 214.35   A 1.53 1.34 76.9 0 0 327.08 213.79   Q 324.61 213.12 323.69 215.09   Q 323.64 215.20 322.83 218.41   Q 320.36 228.10 317.89 238.19   Q 317.36 240.38 317.02 238.15   Q 312.83 210.09 308.48 182.20   Q 308.19 180.34 307.39 179.56   Q 305.94 178.13 303.94 179.74   A 1.64 1.41 81.9 0 0 303.42 180.55   L 295.82 207.94   Q 295.68 208.44 295.37 208.06"
       id="path71" />
    <path
       stroke="#ff8080"
       vector-effect="non-scaling-stroke"
       d="   M 189.68 218.54   Q 187.62 219.18 186.60 217.26   L 183.18 210.80   Q 182.56 209.63 182.03 210.90   L 179.53 216.94   Q 178.90 218.46 177.09 218.52   Q 161.66 219.07 145.54 218.56   Q 144.35 218.53 145.03 219.50   Q 158.01 238.26 175.48 253.53   Q 189.62 265.89 204.56 276.75   A 1.04 1.03 44.5 0 0 205.79 276.74   Q 214.20 270.35 222.10 264.12   Q 239.74 250.19 254.58 233.33   Q 260.44 226.68 264.98 219.67   Q 265.62 218.68 264.43 218.68   L 234.26 218.69   A 0.93 0.92 13.8 0 0 233.44 219.18   L 227.73 230.04   Q 225.92 233.48 223.32 230.57   Q 221.59 228.64 220.25 224.74   Q 219.65 223.00 219.20 224.79   L 211.74 254.48   A 2.25 2.18 -0.2 0 1 210.10 256.08   Q 207.34 256.73 206.84 253.49   Q 202.37 224.21 197.83 195.08   Q 197.63 193.79 197.31 195.05   Q 194.59 205.81 191.33 216.40   Q 190.77 218.20 189.68 218.54"
       id="path73" />
  </g>
  <path
     fill="#fe0000"
     d="   M 218.18 213.43   Q 216.49 214.18 216.05 215.99   L 210.74 237.77   Q 210.03 240.69 209.60 237.72   Q 205.84 212.11 201.70 185.06   Q 201.41 183.16 200.94 181.30   Q 200.51 179.63 199.43 179.10   Q 198.14 178.47 197.03 179.47   Q 196.39 180.04 195.98 181.39   Q 191.98 194.62 188.50 208.01   Q 188.24 208.99 187.77 208.10   Q 186.38 205.50 184.80 202.90   Q 183.09 200.08 181.27 201.68   Q 180.55 202.31 179.64 204.15   Q 177.50 208.45 175.74 212.81   A 0.71 0.70 -78.7 0 1 175.09 213.25   L 142.02 213.25   A 1.10 1.10 -15.5 0 1 141.08 212.72   Q 133.48 200.00 132.09 185.24   Q 131.39 177.90 132.84 170.67   Q 136.50 152.34 152.44 143.69   Q 160.55 139.29 169.61 139.17   Q 178.50 139.07 186.43 142.91   Q 198.62 148.80 204.59 162.57   Q 205.06 163.67 205.57 162.59   Q 215.72 141.23 236.51 139.52   Q 246.85 138.66 255.99 142.86   Q 266.35 147.61 272.17 157.39   Q 277.09 165.67 278.08 176.32   Q 279.02 186.43 276.08 196.52   Q 273.57 205.10 269.24 212.52   A 1.49 1.48 15.2 0 1 267.96 213.25   Q 252.00 213.25 236.75 213.26   Q 234.00 213.26 231.29 213.73   A 1.21 1.21 13.5 0 0 230.52 214.20   Q 227.79 217.88 226.18 222.20   Q 225.52 223.99 224.76 222.24   Q 223.43 219.15 221.64 215.43   Q 220.24 212.51 218.18 213.43   Z"
     id="path79" />
  <path
     fill="#fe0000"
     d="   M 80.43 207.81   Q 81.04 209.51 81.50 207.76   Q 84.97 194.46 88.93 181.31   Q 89.35 179.92 89.91 179.36   Q 90.93 178.34 92.29 178.94   Q 93.81 179.61 94.06 181.26   L 102.70 238.64   A 0.67 0.34 85.7 0 0 103.04 239.21   Q 103.29 239.25 103.42 238.68   Q 106.12 227.34 109.14 216.08   Q 109.61 214.35 110.46 213.79   Q 111.47 213.12 112.67 213.65   Q 113.46 214.00 114.07 215.10   Q 115.99 218.57 117.85 222.39   Q 118.38 223.48 118.95 222.38   L 122.90 214.73   A 2.32 2.18 10.4 0 1 124.75 213.54   Q 132.62 212.91 140.76 213.56   A 1.12 0.88 -8.7 0 1 141.58 214.02   L 144.01 218.21   A 0.35 0.32 -13.6 0 1 143.69 218.69   L 127.32 218.74   A 1.51 1.43 -75.5 0 0 126.05 219.54   L 120.25 230.65   Q 118.29 234.41 116.34 230.74   L 113.30 225.00   Q 112.54 223.56 112.16 225.09   Q 108.46 240.12 104.45 254.37   Q 103.81 256.66 101.79 256.08   Q 99.95 255.55 99.67 253.65   L 90.94 195.56   Q 90.65 193.67 90.19 195.44   Q 87.62 205.17 84.88 214.86   Q 84.27 217.05 83.62 217.85   Q 82.33 219.43 80.56 218.12   Q 79.74 217.51 78.94 215.98   Q 77.50 213.22 75.89 210.49   Q 75.57 209.94 75.32 210.52   L 72.79 216.41   Q 71.78 218.74 69.30 218.75   Q 57.30 218.79 45.34 218.70   Q 42.99 218.68 41.90 218.10   Q 39.47 216.81 41.74 213.95   A 1.09 1.09 18.0 0 1 42.55 213.54   Q 54.94 212.89 67.57 213.45   A 1.20 1.10 -75.1 0 0 68.64 212.77   L 73.56 202.31   Q 75.09 199.08 77.25 202.00   Q 79.36 204.85 80.43 207.81   Z"
     id="path81" />
  <path
     fill="#fe0000"
     d="   M 295.82 207.94   L 303.42 180.55   A 1.64 1.41 81.9 0 1 303.94 179.74   Q 305.94 178.13 307.39 179.56   Q 308.19 180.34 308.48 182.20   Q 312.83 210.09 317.02 238.15   Q 317.36 240.38 317.89 238.19   Q 320.36 228.10 322.83 218.41   Q 323.64 215.20 323.69 215.09   Q 324.61 213.12 327.08 213.79   A 1.53 1.34 76.9 0 1 327.86 214.35   Q 330.20 217.66 331.74 221.92   Q 332.49 224.01 333.38 221.98   Q 335.33 217.51 338.01 213.96   A 1.03 1.00 -71.7 0 1 338.80 213.55   Q 353.40 213.03 368.00 213.25   Q 372.11 213.31 374.20 213.91   A 1.18 1.10 -4.1 0 1 374.92 214.49   Q 376.02 216.76 374.17 218.21   A 1.61 1.39 22.8 0 1 373.24 218.51   L 341.91 218.73   A 1.75 1.71 12.2 0 0 340.36 219.70   Q 337.86 225.03 334.99 230.02   Q 333.48 232.66 331.49 231.45   Q 330.51 230.85 329.62 229.03   Q 328.56 226.87 327.56 224.68   Q 326.86 223.16 326.49 224.79   Q 323.24 239.04 319.36 253.17   Q 318.83 255.08 317.80 255.75   Q 316.37 256.69 315.05 255.46   Q 314.29 254.75 314.06 253.25   Q 309.53 224.16 305.33 195.53   Q 305.02 193.47 304.50 195.48   Q 302.11 204.78 299.50 214.00   Q 298.81 216.42 298.20 217.40   Q 296.18 220.64 293.52 216.07   Q 292.06 213.58 290.55 210.61   Q 290.11 209.73 289.69 210.62   Q 288.59 212.99 287.72 215.58   Q 286.55 219.09 282.74 219.00   Q 274.53 218.80 266.31 218.69   A 0.31 0.30 14.4 0 1 266.04 218.24   L 268.54 213.77   A 0.92 0.87 13.8 0 1 269.33 213.32   L 282.07 213.26   A 1.11 1.08 10.3 0 0 283.08 212.58   Q 284.92 208.06 287.30 203.49   Q 288.25 201.68 289.52 201.36   Q 291.56 200.85 292.70 203.56   Q 293.73 206.01 295.37 208.06   Q 295.68 208.44 295.82 207.94   Z"
     id="path83" />
  <path
     fill="#fe0000"
     d="   M 189.68 218.54   Q 190.77 218.20 191.33 216.40   Q 194.59 205.81 197.31 195.05   Q 197.63 193.79 197.83 195.08   Q 202.37 224.21 206.84 253.49   Q 207.34 256.73 210.10 256.08   A 2.25 2.18 -0.2 0 0 211.74 254.48   L 219.20 224.79   Q 219.65 223.00 220.25 224.74   Q 221.59 228.64 223.32 230.57   Q 225.92 233.48 227.73 230.04   L 233.44 219.18   A 0.93 0.92 13.8 0 1 234.26 218.69   L 264.43 218.68   Q 265.62 218.68 264.98 219.67   Q 260.44 226.68 254.58 233.33   Q 239.74 250.19 222.10 264.12   Q 214.20 270.35 205.79 276.74   A 1.04 1.03 44.5 0 1 204.56 276.75   Q 189.62 265.89 175.48 253.53   Q 158.01 238.26 145.03 219.50   Q 144.35 218.53 145.54 218.56   Q 161.66 219.07 177.09 218.52   Q 178.90 218.46 179.53 216.94   L 182.03 210.90   Q 182.56 209.63 183.18 210.80   L 186.60 217.26   Q 187.62 219.18 189.68 218.54   Z"
     id="path85" />
</svg>
